<svg xmlns="http://www.w3.org/2000/svg" viewBox="0 0 64 64">
  <!-- 背景圆形 -->
  <circle cx="32" cy="32" r="32" fill="#1677ff"/>
  <!-- 发票纸张 -->
  <rect x="14" y="10" width="28" height="36" rx="3" ry="3" fill="white"/>
  <!-- 锯齿底部 -->
  <path d="M14 46 l2 4 l2-4 l2 4 l2-4 l2 4 l2-4 l2 4 l2-4 l2 4 l2-4 l2 4 l2-4 l2 4 l2-4 v-4 H14 v4z" fill="white"/>
  <!-- 文字行 -->
  <rect x="19" y="17" width="18" height="3" rx="1.5" fill="#1677ff" opacity="0.9"/>
  <rect x="19" y="24" width="14" height="2" rx="1" fill="#91caff"/>
  <rect x="19" y="29" width="16" height="2" rx="1" fill="#91caff"/>
  <rect x="19" y="34" width="10" height="2" rx="1" fill="#91caff"/>
  <!-- 金额高亮 -->
  <rect x="19" y="39" width="18" height="2.5" rx="1.25" fill="#1677ff" opacity="0.5"/>
</svg>
